<svg xmlns="http://www.w3.org/2000/svg" width="30.672" height="28" viewBox="0 0 30.672 28">
  <g id="iconfinder_weather-07_1530387" transform="translate(-84.245 -90.935)">
    <path id="Path_17" data-name="Path 17" d="M172.712,187h2.2l.5-.481a.708.708,0,0,1,.982,0l.5.481h2.2a.657.657,0,0,1,.671-.694H182.4a7.54,7.54,0,0,0-5.027-11.279,7.574,7.574,0,0,0-7.983,11.28h2.651A.656.656,0,0,1,172.712,187Z" transform="translate(-76.329 -76.184)" fill="#f8b62d"/>
    <path id="Path_18" data-name="Path 18" d="M155.9,165a7.565,7.565,0,0,1,14.035,3.922.694.694,0,0,1,1.388,0,8.952,8.952,0,1,0-17.034,3.854h1.562A7.665,7.665,0,0,1,155.9,165Z" transform="translate(-62.794 -62.65)" fill="#fff"/>
    <path id="Path_19" data-name="Path 19" d="M331.77,250.1a.694.694,0,0,0,1.388,0A.694.694,0,0,0,331.77,250.1Z" transform="translate(-224.624 -143.831)" fill="#fff"/>
    <path id="Path_20" data-name="Path 20" d="M321.243,256.69a7.724,7.724,0,0,1-1.073,3.854h1.557a9.032,9.032,0,0,0,.9-3.854A.7.7,0,0,1,321.243,256.69Z" transform="translate(-214.097 -150.419)" fill="#fff"/>
    <path id="Path_21" data-name="Path 21" d="M243.888,94.72V91.605a.694.694,0,0,0-1.388,0v3.113A.694.694,0,0,0,243.888,94.72Zm-.694-3.114Z" transform="translate(-143.613 0)" fill="#fff"/>
    <path id="Path_22" data-name="Path 22" d="M165.982,115.026l-1.557-2.7a.7.7,0,0,0-1.2.7l1.557,2.7A.7.7,0,0,0,165.982,115.026Zm-.6.351-1.557-2.7Z" transform="translate(-71.582 -19.109)" fill="#fff"/>
    <path id="Path_23" data-name="Path 23" d="M105.637,171.217l2.7,1.557a.7.7,0,0,0,.7-1.2l-2.7-1.549A.693.693,0,0,0,105.637,171.217Zm.351-.6,2.7,1.557Z" transform="translate(-19.107 -71.68)" fill="#fff"/>
    <path id="Path_24" data-name="Path 24" d="M84.915,250.578h3.113a.694.694,0,0,0,0-1.388H84.915A.694.694,0,0,0,84.915,250.578Zm0-.694Z" transform="translate(0 -143.613)" fill="#fff"/>
    <path id="Path_25" data-name="Path 25" d="M371.4,249.19h-3.113a.694.694,0,0,0,0,1.388H371.4A.694.694,0,0,0,371.4,249.19Zm-3.113.694Z" transform="translate(-257.152 -143.613)" fill="#fff"/>
    <path id="Path_26" data-name="Path 26" d="M351.748,172.722l2.7-1.557a.7.7,0,0,0-.7-1.2l-2.7,1.557A.7.7,0,0,0,351.748,172.722Zm2.346-2.156-2.7,1.557Z" transform="translate(-241.813 -71.627)" fill="#fff"/>
    <path id="Path_27" data-name="Path 27" d="M306.213,115.724l1.557-2.7a.7.7,0,0,0-1.2-.7l-1.548,2.7A.692.692,0,0,0,306.213,115.724Zm.958-3.047-1.557,2.7Z" transform="translate(-200.257 -19.107)" fill="#fff"/>
    <path id="Path_28" data-name="Path 28" d="M295.909,298.35H285.221a.694.694,0,0,0,0,1.388h10.688A.694.694,0,0,0,295.909,298.35Z" transform="translate(-181.773 -188.225)" fill="#fff"/>
    <path id="Path_29" data-name="Path 29" d="M93.405,299.738h3.388a.694.694,0,0,0,0-1.388H86.105a.694.694,0,0,0,0,1.388h7.3Z" transform="translate(-1.08 -188.225)" fill="#fff"/>
    <path id="Path_30" data-name="Path 30" d="M141.433,302.208H134l-.806-.771-2.347-2.246-.5-.481a.708.708,0,0,0-.982,0l-.5.481-2.33,2.229-.823.787h-7.432a.694.694,0,0,0,0,1.388h5.712c.661,0,1.34.045,2,0a1.43,1.43,0,0,0,.853-.548l.093-.087.054-.055.992-.949.164-.156,1.713-1.637c.615.6,1.226,1.214,1.85,1.814.324.313.648.623.984.925.064.058.129.115.192.172.115.1.229.205.345.305.463.4,1.469.216,2.035.216h6.182A.7.7,0,0,0,141.433,302.208Z" transform="translate(-30.274 -188.372)" fill="#fff"/>
    <path id="Path_31" data-name="Path 31" d="M164.782,378.57H146.925a.694.694,0,0,0,0,1.388h17.857A.694.694,0,0,0,164.782,378.57Z" transform="translate(-56.273 -261.023)" fill="#fff"/>
  </g>
</svg>
