<svg xmlns="http://www.w3.org/2000/svg" width="30.672" height="28" viewBox="0 0 30.672 28">
  <g id="iconfinder_weather-09_1530384" transform="translate(-84.245 -90.935)">
    <path id="Path_32" data-name="Path 32" d="M182.411,186.309a7.54,7.54,0,0,0-5.027-11.279,7.574,7.574,0,0,0-7.983,11.28h13.009Z" transform="translate(-76.338 -76.184)" fill="#f8b62d"/>
    <path id="Path_33" data-name="Path 33" d="M321.243,256.69a7.724,7.724,0,0,1-1.073,3.854h1.557a9.033,9.033,0,0,0,.9-3.854A.7.7,0,0,1,321.243,256.69Z" transform="translate(-214.097 -150.419)" fill="#fff"/>
    <path id="Path_34" data-name="Path 34" d="M155.9,165a7.565,7.565,0,0,1,14.035,3.922.694.694,0,0,1,1.388,0,8.952,8.952,0,1,0-17.034,3.854h1.562A7.665,7.665,0,0,1,155.9,165Z" transform="translate(-62.794 -62.65)" fill="#fff"/>
    <path id="Path_35" data-name="Path 35" d="M331.77,250.1a.694.694,0,0,0,1.388,0A.694.694,0,0,0,331.77,250.1Z" transform="translate(-224.624 -143.831)" fill="#fff"/>
    <path id="Path_36" data-name="Path 36" d="M242.5,91.605v3.113a.694.694,0,0,0,1.388,0V91.605A.694.694,0,0,0,242.5,91.605Zm.694,3.113Z" transform="translate(-143.613)" fill="#fff"/>
    <path id="Path_37" data-name="Path 37" d="M163.3,113.034l1.557,2.7a.7.7,0,0,0,1.2-.7l-1.557-2.7A.7.7,0,0,0,163.3,113.034Zm.6-.351,1.557,2.7Z" transform="translate(-71.656 -19.113)" fill="#fff"/>
    <path id="Path_38" data-name="Path 38" d="M106.337,170.034a.7.7,0,0,0-.7,1.2l2.7,1.557a.7.7,0,0,0,.7-1.2Zm-.351.6,2.7,1.557Z" transform="translate(-19.107 -71.692)" fill="#fff"/>
    <path id="Path_39" data-name="Path 39" d="M84.915,250.578h3.113a.694.694,0,0,0,0-1.388H84.915A.694.694,0,0,0,84.915,250.578Zm3.113-.694Z" transform="translate(0 -143.613)" fill="#fff"/>
    <path id="Path_40" data-name="Path 40" d="M371.4,249.19h-3.113a.694.694,0,0,0,0,1.388H371.4A.694.694,0,0,0,371.4,249.19Zm-3.113.694Z" transform="translate(-257.152 -143.613)" fill="#fff"/>
    <path id="Path_41" data-name="Path 41" d="M353.736,170.021l-2.7,1.557a.7.7,0,0,0,.7,1.2l2.7-1.557A.7.7,0,0,0,353.736,170.021Zm-2.346,2.156,2.7-1.557Z" transform="translate(-241.805 -71.678)" fill="#fff"/>
    <path id="Path_42" data-name="Path 42" d="M306.587,112.331l-1.552,2.7a.7.7,0,0,0,1.2.7l1.557-2.7A.7.7,0,0,0,306.587,112.331Zm-.958,3.047,1.557-2.7Z" transform="translate(-200.272 -19.111)" fill="#fff"/>
    <path id="Path_43" data-name="Path 43" d="M339.876,298.35H333.37q-.171.355-.37.694h3.673v.694h3.2A.694.694,0,0,0,339.876,298.35Z" transform="translate(-225.74 -188.225)" fill="#fff"/>
    <path id="Path_44" data-name="Path 44" d="M86.105,299.044h6.847q-.2-.34-.37-.694H86.105a.694.694,0,0,0,0,1.388h3.2v-.694Z" transform="translate(-1.08 -188.225)" fill="#fff"/>
    <path id="Path_45" data-name="Path 45" d="M192.56,298.35H179.55a7.13,7.13,0,0,0,.463.694H192.1a7.74,7.74,0,0,0,.464-.694Z" transform="translate(-86.487 -188.225)" fill="#fff"/>
    <path id="Path_46" data-name="Path 46" d="M164.689,299.044a7.13,7.13,0,0,1-.463-.694H162.66q.167.353.37.694Z" transform="translate(-71.16 -188.225)" fill="#fff"/>
    <path id="Path_47" data-name="Path 47" d="M315.18,299.044h1.649q.2-.339.37-.694h-1.557A7.742,7.742,0,0,1,315.18,299.044Z" transform="translate(-209.569 -188.225)" fill="#fff"/>
    <path id="Path_48" data-name="Path 48" d="M130.984,305.925l-.043-.075H127.3v.694h4.1C131.251,306.345,131.114,306.141,130.984,305.925Z" transform="translate(-39.072 -195.031)" fill="#fff"/>
    <path id="Path_49" data-name="Path 49" d="M185.191,306.544h10.9a7.658,7.658,0,0,0,.584-.694H184.59q.085.112.175.22Q184.968,306.318,185.191,306.544Z" transform="translate(-91.061 -195.031)" fill="#fff"/>
    <path id="Path_50" data-name="Path 50" d="M328.544,305.85q-.212.357-.454.694h4.127v-.694Z" transform="translate(-221.284 -195.031)" fill="#fff"/>
    <path id="Path_51" data-name="Path 51" d="M308.87,306.544h1.77q.242-.337.454-.694h-1.64A7.658,7.658,0,0,1,308.87,306.544Z" transform="translate(-203.843 -195.031)" fill="#fff"/>
    <path id="Path_52" data-name="Path 52" d="M168.484,306.07q-.093-.108-.175-.22H166.65l.043.075q.194.321.413.619h1.805Q168.689,306.317,168.484,306.07Z" transform="translate(-74.781 -195.031)" fill="#fff"/>
    <path id="Path_53" data-name="Path 53" d="M372.927,339.194H372.7v.694h.227a.694.694,0,0,0,0-1.388H372.7v.694Z" transform="translate(-261.767 -224.66)" fill="#fff"/>
    <path id="Path_54" data-name="Path 54" d="M118.275,339.194h.227V338.5h-.227a.694.694,0,0,0,0,1.388h.227v-.694Z" transform="translate(-30.274 -224.66)" fill="#fff"/>
    <path id="Path_55" data-name="Path 55" d="M202.682,351.2l.23.217h.305Z" transform="translate(-107.48 -236.186)" fill="#fff"/>
    <path id="Path_56" data-name="Path 56" d="M288.733,338.27a8.683,8.683,0,0,1-1.343.715h7.893v-.694H289.8C289.446,338.288,289.09,338.275,288.733,338.27Z" transform="translate(-184.35 -224.451)" fill="#fff"/>
    <path id="Path_57" data-name="Path 57" d="M290.566,351.148h.408l.292-.244Z" transform="translate(-187.248 -235.916)" fill="#fff"/>
    <path id="Path_58" data-name="Path 58" d="M142.52,345.984l-3.867,3.7-3.805-3.7-7.547,0v.694h7.206l-.213-.2.49.2h-.278l3.655,3.5a.708.708,0,0,0,.982,0l3.656-3.5h-.278l.49-.2-.213.2H150v-.694Z" transform="translate(-39.072 -231.45)" fill="#fff"/>
    <path id="Path_59" data-name="Path 59" d="M134.785,338.913h.473a9.1,9.1,0,0,1-1.406-.723c-.22.013-.427.029-.595.029H127.3v.694Z" transform="translate(-39.072 -224.379)" fill="#fff"/>
    <path id="Path_60" data-name="Path 60" d="M282,338.276c-.4.028-.669.37-.941.635l-.058.063h.595a8.687,8.687,0,0,0,1.343-.711C282.622,338.254,282.308,338.255,282,338.276Z" transform="translate(-178.551 -224.44)" fill="#fff"/>
    <path id="Path_61" data-name="Path 61" d="M199.33,338.27a2.184,2.184,0,0,0-1.46-.241,9.308,9.308,0,0,0,1.417.741l.594-.012C199.7,338.6,199.51,338.427,199.33,338.27Z" transform="translate(-103.112 -224.218)" fill="#fff"/>
    <path id="Path_62" data-name="Path 62" d="M245.681,376.032q-.245-.234-.488-.472l-.493.472Z" transform="translate(-145.61 -258.291)" fill="#fff"/>
    <path id="Path_63" data-name="Path 63" d="M213.776,347.066l-1.709,1.632q.243.238.488.472h-.978l.493-.472c-.825-.806-1.64-1.632-2.484-2.419a9.139,9.139,0,0,1-.913-.318H208.2l3.867,3.7,3.867-3.7h-.408a8.532,8.532,0,0,1-.947.338Z" transform="translate(-112.487 -231.43)" fill="#fff"/>
    <path id="Path_64" data-name="Path 64" d="M277.057,346.347a6.894,6.894,0,0,0,.956-.347h-.591Z" transform="translate(-174.973 -231.466)" fill="#fff"/>
    <path id="Path_65" data-name="Path 65" d="M213.878,346h-.568a9.132,9.132,0,0,0,.913.318Q214.051,346.155,213.878,346Z" transform="translate(-117.124 -231.466)" fill="#fff"/>
    <path id="Path_66" data-name="Path 66" d="M285.225,378.57a.694.694,0,0,0,0,1.388h5.061a.694.694,0,0,0,0-1.388Zm0,.694Z" transform="translate(-181.777 -261.023)" fill="#fff"/>
    <path id="Path_67" data-name="Path 67" d="M151.986,378.57h-5.061a.694.694,0,0,0,0,1.388h5.061A.694.694,0,0,0,151.986,378.57Zm-5.061.694Z" transform="translate(-56.273 -261.023)" fill="#fff"/>
  </g>
</svg>
