<?xml version="1.0" standalone="no"?>
<!DOCTYPE svg PUBLIC "-//W3C//DTD SVG 20010904//EN"
 "http://www.w3.org/TR/2001/REC-SVG-20010904/DTD/svg10.dtd">
<svg version="1.0" xmlns="http://www.w3.org/2000/svg"
 width="512.000000pt" height="512.000000pt" viewBox="0 0 512.000000 512.000000"
 preserveAspectRatio="xMidYMid meet">
<metadata>
Created by potrace 1.11, written by Peter Selinger 2001-2013
</metadata>
<g transform="translate(0.000000,512.000000) scale(0.100000,-0.100000)"
fill="#000000" stroke="none">
<path d="M550 5113 c-60 -10 -160 -48 -221 -83 -139 -82 -245 -211 -296 -363
l-28 -82 0 -2025 0 -2025 28 -80 c87 -245 277 -406 527 -444 56 -9 583 -11
2045 -9 1835 3 1974 4 2027 20 232 70 393 230 465 464 17 56 18 148 18 2079
l0 2020 -28 82 c-66 196 -215 345 -419 421 l-73 27 -2010 1 c-1105 1 -2021 0
-2035 -3z m1332 -1633 c31 -61 79 -240 133 -495 90 -425 180 -775 211 -823 39
-59 80 -3 199 276 127 298 138 380 81 605 -47 182 -89 288 -137 344 -37 41
-39 47 -26 67 19 29 70 52 160 70 92 19 187 21 209 4 25 -20 50 -116 123 -464
111 -530 171 -776 216 -881 20 -47 44 -56 72 -25 32 35 137 271 186 417 67
201 84 300 79 445 -4 104 -7 121 -37 182 -21 46 -48 81 -81 110 -31 27 -50 51
-50 64 0 62 240 164 384 164 106 0 116 -10 116 -113 0 -206 -79 -506 -239
-903 -77 -193 -97 -236 -193 -429 -176 -352 -307 -539 -357 -508 -52 32 -142
280 -227 632 -31 124 -59 230 -64 235 -4 4 -53 -84 -107 -195 -107 -220 -188
-367 -290 -524 -99 -153 -125 -174 -164 -139 -48 43 -165 418 -264 844 -162
698 -216 855 -317 930 -80 58 -64 82 92 135 91 30 116 35 185 33 l80 -3 27
-55z"/>
</g>
</svg>
